<?xml version="1.0" encoding="UTF-8" standalone="no"?>
<svg width="191px" height="54px" viewBox="0 0 191 54" version="1.1" xmlns="http://www.w3.org/2000/svg" xmlns:xlink="http://www.w3.org/1999/xlink">
    <!-- Generator: Sketch 45.1 (43504) - http://www.bohemiancoding.com/sketch -->
    <title>icon-seat</title>
    <desc>Created with Sketch.</desc>
    <defs></defs>
    <g id="Careers-&gt;-Trainee-solicitors-&gt;-Our-people-&gt;-Profiles-&gt;-Profile" stroke="none" stroke-width="1" fill="none" fill-rule="evenodd">
        <g id="Careers-&gt;-Trainee-solicitors-&gt;-Our-people-&gt;-Profiles-&gt;-Profile_large" transform="translate(-744.000000, -793.000000)">
            <g id="stat" transform="translate(744.000000, 793.000000)">
                <g id="Page-1">
                    <g id="icon-seat">
                        <path d="M91.6644286,2 C89.1584286,2 87.8424286,4.349 87.4774286,6.36 L85.3954286,17.778 C85.0194286,19.848 85.9254286,21.462 86.7514286,22.452 C88.3094286,24.319 90.8104286,25.479 93.2774286,25.479 L103.727429,25.479 C106.196429,25.479 108.697429,24.319 110.256429,22.451 C111.082429,21.461 111.988429,19.847 111.611429,17.777 L109.530429,6.361 C109.162429,4.35 107.845429,2 105.343429,2 L91.6644286,2 Z M87.3704286,30.837 C86.7384286,30.837 86.2254286,31.353 86.2254286,31.985 L86.2254286,33.308 C86.2254286,33.94 86.7384286,34.455 87.3704286,34.455 L109.636429,34.455 C110.267429,34.455 110.779429,33.94 110.779429,33.308 L110.779429,31.985 C110.779429,31.353 110.267429,30.837 109.636429,30.837 L87.3704286,30.837 Z M86.0564286,49.188 C85.4864286,49.188 85.0234286,49.652 85.0234286,50.223 C85.0234286,50.793 85.4864286,51.258 86.0564286,51.258 C86.6254286,51.258 87.0884286,50.793 87.0884286,50.223 C87.0884286,49.652 86.6254286,49.188 86.0564286,49.188 L86.0564286,49.188 Z M98.5024286,49.188 C97.9334286,49.188 97.4704286,49.652 97.4704286,50.223 C97.4704286,50.793 97.9334286,51.258 98.5024286,51.258 C99.0714286,51.258 99.5354286,50.793 99.5354286,50.223 C99.5354286,49.652 99.0714286,49.188 98.5024286,49.188 L98.5024286,49.188 Z M110.951429,49.188 C110.382429,49.188 109.918429,49.652 109.918429,50.223 C109.918429,50.793 110.382429,51.258 110.951429,51.258 C111.520429,51.258 111.983429,50.793 111.983429,50.223 C111.983429,49.652 111.520429,49.188 110.951429,49.188 L110.951429,49.188 Z M110.951429,53.258 C109.279429,53.258 107.918429,51.896 107.918429,50.223 C107.918429,49.21 108.416429,48.312 109.180429,47.761 C108.625429,46.918 107.834429,46.152 106.827429,45.483 C105.758429,44.773 104.511429,44.216 103.121429,43.827 C101.965429,43.503 100.752429,43.305 99.5024286,43.236 L99.5024286,47.357 C100.685429,47.771 101.535429,48.899 101.535429,50.223 C101.535429,51.896 100.174429,53.258 98.5024286,53.258 C96.8304286,53.258 95.4704286,51.896 95.4704286,50.223 C95.4704286,48.899 96.3204286,47.771 97.5024286,47.357 L97.5024286,43.236 C96.2524286,43.305 95.0404286,43.503 93.8874286,43.827 C92.4954286,44.216 91.2484286,44.773 90.1804286,45.483 C89.1734286,46.15 88.3824286,46.916 87.8274286,47.761 C88.5904286,48.313 89.0884286,49.21 89.0884286,50.223 C89.0884286,51.896 87.7274286,53.258 86.0564286,53.258 C84.3844286,53.258 83.0234286,51.896 83.0234286,50.223 C83.0234286,48.588 84.3224286,47.25 85.9414286,47.189 C85.9574286,47.041 86.0074286,46.894 86.0934286,46.759 C86.8024286,45.648 87.8054286,44.658 89.0744286,43.817 C90.3164286,42.991 91.7544286,42.347 93.3484286,41.901 C94.6744286,41.528 96.0674286,41.305 97.5024286,41.233 L97.5024286,36.455 L87.3704286,36.455 C87.1574286,36.455 86.9494286,36.434 86.7484286,36.394 C86.6894286,36.41 86.6284286,36.422 86.5664286,36.428 C86.4614286,36.438 86.2174286,36.444 84.4384286,36.454 L83.9214286,36.458 C82.6174286,36.488 81.5764286,36.106 80.8074286,35.342 C79.1694286,33.712 79.2094286,30.744 79.2474286,27.875 C79.2764286,25.713 79.3104286,23.263 78.4524286,22.42 C78.2824286,22.253 77.9784286,22.038 77.2664286,22.058 L74.0304286,22.154 C73.4454286,22.164 73.0174286,21.735 73.0004286,21.184 C72.9844286,20.632 73.4184286,20.171 73.9704286,20.154 L77.2044286,20.059 C78.3044286,20.041 79.1864286,20.339 79.8534286,20.993 C81.3214286,22.435 81.2854286,25.09 81.2474286,27.901 C81.2164286,30.24 81.1804286,32.892 82.2184286,33.924 C82.5934286,34.297 83.1364286,34.479 83.8814286,34.458 L84.4274286,34.454 L84.4404286,34.454 C84.3014286,34.099 84.2254286,33.712 84.2254286,33.308 L84.2254286,31.985 C84.2254286,30.249 85.6364286,28.837 87.3704286,28.837 L97.5024286,28.837 L97.5024286,27.655 C97.5024286,27.596 97.5074286,27.536 97.5184286,27.479 L93.2774286,27.479 C90.2324286,27.479 87.1434286,26.044 85.2154286,23.733 C83.6614286,21.87 83.0264286,19.628 83.4284286,17.42 L85.5094286,6.002 C86.1714286,2.356 88.5874286,0 91.6644286,0 L105.343429,0 C108.415429,0 110.831429,2.355 111.497429,6.002 L113.579429,17.419 C113.981429,19.627 113.346429,21.869 111.791429,23.732 C109.863429,26.044 106.773429,27.479 103.727429,27.479 L99.4864286,27.479 C99.4974286,27.536 99.5024286,27.596 99.5024286,27.655 L99.5024286,28.837 L109.636429,28.837 C111.369429,28.837 112.779429,30.249 112.779429,31.985 L112.779429,33.308 C112.779429,33.712 112.703429,34.099 112.563429,34.454 L112.577429,34.454 L113.126429,34.458 C113.871429,34.481 114.412429,34.297 114.788429,33.924 C115.826429,32.891 115.790429,30.24 115.758429,27.901 C115.720429,25.09 115.685429,22.436 117.153429,20.993 C117.819429,20.339 118.717429,20.019 119.804429,20.06 L123.036429,20.154 C123.588429,20.171 124.022429,20.632 124.006429,21.184 C123.990429,21.735 123.567429,22.168 122.976429,22.154 L119.743429,22.059 C119.034429,22.015 118.724429,22.254 118.554429,22.42 C117.696429,23.263 117.729429,25.713 117.758429,27.874 C117.797429,30.744 117.837429,33.711 116.198429,35.341 C115.429429,36.105 114.371429,36.477 113.086429,36.458 L112.566429,36.454 C110.789429,36.444 110.545429,36.438 110.441429,36.428 C110.378429,36.422 110.317429,36.41 110.258429,36.394 C110.057429,36.434 109.849429,36.455 109.636429,36.455 L99.5024286,36.455 L99.5024286,41.233 C100.936429,41.305 102.331429,41.528 103.661429,41.901 C105.251429,42.346 106.689429,42.991 107.934429,43.817 C109.204429,44.662 110.206429,45.651 110.914429,46.759 C111.000429,46.894 111.050429,47.041 111.066429,47.189 C112.685429,47.25 113.983429,48.588 113.983429,50.223 C113.983429,51.896 112.623429,53.258 110.951429,53.258 L110.951429,53.258 Z" id="Fill-16" fill="#ED713E" fill-rule="evenodd"></path>
                        <path d="M190.362983,30.5 L128.5,30.5" id="Line-2" stroke="#EC703E" stroke-width="1" stroke-linecap="square"></path>
                        <path d="M62.3629835,30.5 L0.5,30.5" id="Line-2" stroke="#EC703E" stroke-width="1" stroke-linecap="square"></path>
                    </g>
                </g>
            </g>
        </g>
    </g>
</svg>