<?xml version="1.0" encoding="UTF-8" standalone="no"?>
<svg width="17px" height="12px" viewBox="0 0 17 12" version="1.1" xmlns="http://www.w3.org/2000/svg" xmlns:xlink="http://www.w3.org/1999/xlink">
    <!-- Generator: Sketch 45.1 (43504) - http://www.bohemiancoding.com/sketch -->
    <title>icon-blockquote</title>
    <desc>Created with Sketch.</desc>
    <defs></defs>
    <g id="Publications-and-newsletters&gt;Publication" stroke="none" stroke-width="1" fill="none" fill-rule="evenodd">
        <g id="Publications-and-newsletters&gt;Publication_medium" transform="translate(-132.000000, -854.000000)" fill="#000000">
            <g id="quote" transform="translate(132.000000, 845.000000)">
                <g id="icon-blockquote" transform="translate(0.000000, 9.000318)">
                    <path d="M3.72944444,5.12628182 C5.13344444,5.12628182 6.27544444,6.26828182 6.27544444,7.67128182 C6.27544444,9.07428182 5.13344444,10.2162818 3.72944444,10.2162818 C2.32644444,10.2162818 1.18444444,9.07428182 1.18444444,7.67128182 C1.18444444,6.26828182 2.32644444,5.12628182 3.72944444,5.12628182 M3.72944444,3.94128182 C3.05244444,3.94128182 2.42644444,4.13628182 1.87944444,4.45228182 C1.95444444,4.28028182 2.01344444,4.09728182 2.10044444,3.93328182 C2.75944444,2.68828182 3.73744444,1.74428182 5.00444444,1.12528182 C5.29744444,0.98128182 5.41844444,0.62628182 5.27644444,0.33328182 C5.20744444,0.19128182 5.08644444,0.0842818203 4.93744444,0.0332818203 C4.78644444,-0.0197181797 4.62544444,-0.00871817966 4.48444444,0.0612818203 C2.98744444,0.79328182 1.83344444,1.90928182 1.05344444,3.37828182 C0.605444444,4.22428182 0.292444444,5.16228182 0.125444444,6.16728182 C0.0374444444,6.69328182 -0.00455555556,7.20828182 0.00144444444,7.65928182 C0.00144444444,7.66328182 0.000444444444,7.66728182 0.000444444444,7.67128182 C0.000444444444,7.67328182 0.000444444444,7.67528182 0.000444444444,7.67728182 C0.000444444444,7.68228182 -0.000555555556,7.68928182 0.000444444444,7.69428182 C0.000444444444,7.70028182 0.00344444444,7.70528182 0.00444444444,7.71128182 C0.0264444444,9.74928182 1.68644444,11.4002818 3.72944444,11.4002818 C5.78644444,11.4002818 7.45944444,9.72828182 7.45944444,7.67128182 C7.45944444,5.61428182 5.78644444,3.94128182 3.72944444,3.94128182" id="Fill-1"></path>
                    <path d="M12.3573444,5.12628182 C13.7613444,5.12628182 14.9033444,6.26828182 14.9033444,7.67128182 C14.9033444,9.07428182 13.7613444,10.2162818 12.3573444,10.2162818 C10.9543444,10.2162818 9.81234444,9.07428182 9.81234444,7.67128182 C9.81234444,6.26828182 10.9543444,5.12628182 12.3573444,5.12628182 M12.3573444,3.94128182 C11.6803444,3.94128182 11.0543444,4.13628182 10.5073444,4.45228182 C10.5823444,4.28028182 10.6413444,4.09728182 10.7283444,3.93328182 C11.3873444,2.68828182 12.3653444,1.74428182 13.6323444,1.12528182 C13.9253444,0.98128182 14.0463444,0.62628182 13.9043444,0.33228182 C13.7593444,0.0392818203 13.4043444,-0.0827181797 13.1123444,0.0612818203 C11.6153444,0.79328182 10.4613444,1.90928182 9.68134444,3.37828182 C9.23434444,4.22128182 8.92134444,5.15928182 8.75334444,6.16728182 C8.66634444,6.69028182 8.62334444,7.20528182 8.62934444,7.65828182 C8.62934444,7.66328182 8.62834444,7.66728182 8.62834444,7.67128182 C8.62834444,7.67328182 8.62834444,7.67528182 8.62834444,7.67728182 C8.62834444,7.68228182 8.62734444,7.68928182 8.62834444,7.69428182 C8.62834444,7.70028182 8.63134444,7.70528182 8.63234444,7.71128182 C8.65434444,9.74928182 10.3143444,11.4002818 12.3573444,11.4002818 C14.4143444,11.4002818 16.0873444,9.72828182 16.0873444,7.67128182 C16.0873444,5.61428182 14.4143444,3.94128182 12.3573444,3.94128182" id="Fill-3"></path>
                </g>
            </g>
        </g>
    </g>
</svg>